<svg xmlns="http://www.w3.org/2000/svg" class="img-fluid" id="outputsvg" width="912" height="292" viewBox="0 50 9097 2800" style="&#10;"><g id="l6mQzwxcAc1Gn5OzjgmNbt1" fill="rgb(255,255,255)"><g style="transform: none;"><path id="pMBRDey97" d="M103 2880 c-64 -15 -98 -67 -90 -137 5 -51 22 -72 97 -123 69 -48 104 -86 119 -129 16 -49 16 -1790 -1 -1826 -8 -18 -36 -38 -94 -65 -90 -43 -114 -67 -114 -118 0 -57 61 -107 348 -282 144 -88 280 -169 302 -180 69 -35 120 -24 139 31 8 22 11 279 11 851 l0 820 58 -50 c180 -157 322 -319 322 -368 0 -19 -14 -34 -65 -66 -36 -22 -72 -53 -80 -69 -33 -64 -5 -130 63 -149 49 -13 715 -13 764 0 67 19 97 88 67 154 -17 36 -73 71 -151 95 -105 31 -164 66 -246 145 l-76 74 224 458 c205 417 309 606 356 645 14 11 13 5 -5 -30 -27 -51 -51 -157 -51 -224 0 -74 28 -194 63 -266 47 -98 165 -212 282 -273 174 -90 337 -126 608 -135 l179 -6 -7 -36 c-11 -57 -65 -179 -99 -224 -63 -83 -164 -127 -289 -127 -111 0 -191 29 -374 136 -103 61 -148 69 -182 32 -31 -32 -36 -79 -15 -140 34 -103 200 -236 384 -307 120 -47 228 -65 380 -66 163 0 256 19 368 75 98 50 165 109 231 204 94 137 136 244 301 766 128 408 160 479 232 527 47 32 110 41 141 20 20 -13 26 -33 45 -153 22 -132 23 -164 20 -604 l-3 -465 -135 -5 c-80 -3 -144 -10 -157 -17 -12 -7 -27 -28 -33 -48 -10 -29 -8 -41 8 -79 21 -46 719 -878 752 -896 24 -13 66 -13 90 0 39 21 44 62 48 393 l3 317 299 0 c356 0 336 -7 327 111 -7 92 -29 151 -69 184 l-30 25 -264 0 -264 0 0 512 c0 550 5 618 46 668 59 70 150 65 300 -15 l104 -56 -17 -37 c-86 -196 -120 -352 -108 -506 18 -237 124 -463 297 -633 89 -89 149 -132 253 -185 342 -174 680 -155 989 55 71 48 183 157 218 212 41 64 43 79 9 117 -16 18 -236 195 -490 393 -253 198 -461 365 -461 371 0 21 176 179 231 206 201 100 434 64 633 -97 53 -44 147 -154 159 -187 12 -33 36 -20 47 25 21 79 43 142 71 201 38 78 39 142 2 105 -8 -8 -31 10 -84 66 -133 140 -305 252 -482 314 -380 133 -754 81 -1033 -143 l-66 -53 -56 57 c-140 139 -341 212 -587 213 -198 0 -308 -35 -451 -144 -38 -28 -70 -47 -71 -43 -20 58 -100 123 -188 150 -77 25 -275 30 -355 10 -101 -25 -185 -72 -255 -140 l-62 -61 -104 58 c-217 120 -425 177 -647 177 -162 0 -328 -42 -423 -106 -28 -19 -53 -34 -55 -34 -2 0 -4 12 -4 28 0 44 -34 89 -77 102 -25 8 -121 10 -285 8 l-247 -3 -28 -27 c-17 -16 -123 -217 -263 -498 -129 -258 -238 -470 -242 -470 -3 0 -61 50 -128 112 l-122 112 4 185 c4 215 9 231 93 291 27 19 69 54 92 76 40 38 43 45 43 92 0 62 -32 106 -88 122 -43 12 -799 12 -849 0z m3039 -371 c67 -22 109 -55 133 -103 17 -33 20 -113 6 -148 -5 -13 -19 -61 -32 -108 -36 -137 -59 -171 -138 -201 -64 -24 -99 -24 -188 1 -140 39 -220 107 -260 220 -48 135 56 308 217 361 40 13 193 0 262 -22z m2797 -632 c47 -39 131 -108 185 -152 112 -90 186 -160 186 -175 0 -31 -77 -131 -142 -185 -115 -95 -233 -119 -341 -71 -202 89 -212 330 -24 599 22 31 42 57 45 57 3 0 44 -33 91 -73z"/></g></g><g id="l4qYIksstLGrEoq6WJU0NJz"
 fill="rgb(255,255,255)" style="transform: none;/* fill: rebeccapurple; */"><g style="transform: none;"><path id="psZkv2Q4m" d="M7880 2880 c-290 -35 -533 -166 -698 -377 -37 -46 -67 -88 -67 -91 0 -4 -13 -34 -28 -67 -58 -123 -80 -219 -84 -366 -6 -158 9 -252 56 -374 88 -229 286 -442 516 -557 180 -91 325 -123 555 -123 240 0 398 35 596 130 125 61 174 105 174 158 0 40 -196 457 -240 510 -25 29 -38 37 -65 37 -49 0 -79 -45 -131 -197 -24 -69 -53 -145 -64 -167 -32 -68 -114 -152 -178 -183 -50 -25 -68 -28 -152 -28 -87 0 -100 3 -150 30 -130 71 -217 220 -250 428 -19 114 -8 362 19 462 61 222 202 391 370 443 85 26 236 23 330 -8 94 -30 220 -112 333 -218 101 -94 137 -116 179 -107 74 17 90 104 37 204 -96 179 -301 349 -503 416 -131 44 -391 65 -555 45z"/></g></g><g id="l6v9YRbKF5a4eVZRTZG6Hik" fill="rgb(255,255,255)"><g style="transform: none;"><path id="pcxl0BqBc" d="M8745 1001 c-85 -22 -160 -84 -193 -160 -23 -54 -20 -156 7 -212 82 -172 310 -207 437 -67 50 55 67 102 68 178 0 105 -65 206 -158 245 -43 18 -123 26 -161 16z m167 -76 c82 -54 120 -144 98 -236 -42 -172 -264 -221 -378 -83 -121 147 2 369 193 348 28 -3 66 -16 87 -29z"/><path id="pymfibC5Y" d="M8710 881 c0 -6 -1 -71 -1 -143 l0 -133 30 -9 c41 -12 114 1 140 25 27 25 27 69 0 103 -16 21 -18 30 -9 41 6 8 18 37 25 65 12 44 11 52 -1 57 -26 10 -41 -5 -53 -54 -13 -51 -24 -63 -58 -63 -20 0 -22 6 -25 58 -3 50 -6 57 -25 60 -13 2 -23 -1 -23 -7z m118 -167 c12 -8 22 -24 22 -34 0 -23 -36 -50 -67 -50 -21 0 -23 5 -23 50 0 45 2 50 23 50 12 0 33 -7 45 -16z"/></g></g></svg>